<?xml version="1.0" standalone="no"?>
<!DOCTYPE svg PUBLIC "-//W3C//DTD SVG 20010904//EN"
 "http://www.w3.org/TR/2001/REC-SVG-20010904/DTD/svg10.dtd">
<svg version="1.0" xmlns="http://www.w3.org/2000/svg"
 width="743.000000pt" height="743.000000pt" viewBox="0 0 743.000000 743.000000"
 preserveAspectRatio="xMidYMid meet">
<metadata>
Created by potrace 1.11, written by Peter Selinger 2001-2013
</metadata>
<g transform="translate(0.000000,743.000000) scale(0.100000,-0.100000)"
fill="#000000" stroke="none">
<path d="M3155 7115 c-123 -84 -379 -329 -505 -485 -25 -30 -48 -57 -51 -60
-15 -14 -134 -178 -196 -270 -246 -369 -427 -779 -558 -1265 -18 -68 -72 -320
-80 -370 -3 -23 -8 -52 -10 -65 -4 -21 -21 -154 -40 -315 -20 -161 -28 -712
-14 -900 13 -175 19 -251 23 -271 2 -11 7 -50 10 -89 4 -38 8 -81 11 -95 2
-14 9 -61 15 -105 6 -44 12 -91 15 -105 2 -14 11 -63 19 -110 23 -126 25 -136
47 -245 30 -151 102 -444 149 -606 57 -201 180 -582 191 -594 5 -5 9 -15 9
-23 0 -14 154 -431 170 -461 8 -15 14 4 26 84 3 22 7 42 9 45 2 3 6 26 10 50
3 25 26 126 50 225 192 790 528 1494 959 2005 92 110 279 299 381 387 226 194
507 366 774 474 l83 34 -6 45 c-8 63 -32 203 -51 300 -59 301 -166 684 -269
968 -54 147 -108 289 -126 327 -5 11 -32 72 -61 135 -226 505 -501 920 -849
1283 l-95 99 -40 -27z"/>
<path d="M6267 4294 c-1 -1 -29 -5 -62 -8 -97 -11 -124 -15 -225 -33 -189 -33
-616 -152 -745 -208 -16 -8 -77 -32 -135 -55 -152 -60 -424 -196 -580 -290
-451 -272 -836 -617 -1139 -1020 -39 -52 -74 -99 -79 -105 -4 -5 -44 -66 -88
-135 -201 -311 -360 -647 -484 -1022 -28 -86 -53 -162 -54 -170 -1 -7 -10 -40
-20 -73 -10 -33 -20 -67 -22 -75 -33 -145 -74 -330 -79 -359 -3 -20 -8 -45
-11 -56 -3 -11 9 4 25 34 17 30 31 56 31 58 0 3 95 143 140 205 237 327 630
644 1040 840 225 108 579 224 764 252 21 4 41 8 45 10 3 2 26 7 51 10 25 3 54
8 66 10 12 2 45 7 75 11 30 3 65 8 79 11 56 10 318 26 469 28 l123 1 55 75
c298 406 570 906 696 1280 40 121 83 283 93 355 3 28 9 59 11 70 7 30 11 295
6 332 -4 24 -10 31 -25 30 -10 -1 -20 -2 -21 -3z"/>
<path d="M5067 1954 c-1 -1 -45 -5 -97 -8 -110 -8 -321 -38 -430 -61 -41 -9
-83 -18 -92 -20 -272 -58 -633 -206 -893 -368 -306 -190 -598 -457 -833 -759
-29 -37 -52 -72 -52 -76 0 -11 72 -38 215 -82 193 -60 406 -108 595 -134 63
-9 129 -19 145 -21 190 -27 693 -28 865 -1 14 2 46 7 71 10 521 72 1037 293
1451 623 189 150 423 390 558 573 14 18 35 46 48 61 12 15 22 29 22 32 0 6
-196 69 -300 96 -74 19 -287 65 -345 75 -16 2 -50 8 -75 11 -25 4 -52 9 -60
10 -8 2 -44 6 -80 10 -36 3 -72 8 -80 10 -43 12 -622 29 -633 19z"/>
</g>
</svg>
